<svg xmlns="http://www.w3.org/2000/svg" viewBox="0 0 700 700" role="img" aria-label="Black washed pixel face graphic tee">
  <rect width="700" height="700" fill="#fbfbf9"/>
  <filter id="noise"><feTurbulence type="fractalNoise" baseFrequency=".9" numOctaves="2" seed="4"/><feColorMatrix type="saturate" values=".08"/><feBlend mode="multiply" in2="SourceGraphic"/></filter>
  <path d="M166 118 270 76h160l104 42 120 98-72 92-62-48v336H180V260l-62 48-72-92z" fill="#272725"/>
  <path d="M166 118 270 76h160l104 42 120 98-72 92-62-48v336H180V260l-62 48-72-92z" fill="#ffffff" opacity=".08" filter="url(#noise)"/>
  <path d="M268 78c30 52 135 52 164 0" fill="none" stroke="#3b3b39" stroke-width="20"/>
  <g fill="#e8e5dc">
    <rect x="320" y="185" width="18" height="18"/><rect x="342" y="185" width="18" height="18"/><rect x="364" y="185" width="18" height="18"/><rect x="386" y="207" width="18" height="18"/><rect x="408" y="229" width="18" height="18"/>
    <rect x="298" y="207" width="18" height="18"/><rect x="320" y="229" width="18" height="18"/><rect x="342" y="251" width="18" height="18"/><rect x="364" y="273" width="18" height="18"/><rect x="386" y="295" width="18" height="18"/>
    <rect x="276" y="251" width="18" height="18"/><rect x="298" y="273" width="18" height="18"/><rect x="320" y="295" width="18" height="18"/><rect x="342" y="317" width="18" height="18"/><rect x="364" y="339" width="18" height="18"/>
    <rect x="298" y="361" width="18" height="18"/><rect x="320" y="383" width="18" height="18"/><rect x="342" y="405" width="18" height="18"/><rect x="364" y="427" width="18" height="18"/>
    <rect x="386" y="449" width="18" height="18"/><rect x="408" y="471" width="18" height="18"/>
  </g>
</svg>
